# xmcd
#
# Track frame offsets:
#	150
#	25922
#	49651
#	76452
#	99477
#	128728
#	154520
#	178540
#	207863
#	233324
#
# Disc length: 3330 seconds
#
# Revision: 1
# Processed by: cddbd v1.5.2PL0 Copyright (c) Steve Scherf et al.
# Submitted via: audiograbber 1.83.01
#
DISCID=6d0d000a
DTITLE=The Fabulous Horndogs - Dog Tracks
DYEAR=2008
DGENRE=Blues
TTITLE0=For You My Love
TTITLE1=Red Beans
TTITLE2=Blues As Blues Can Get
TTITLE3=Funky Kid
TTITLE4=Drinking Tanqueray
TTITLE5=Cease And Desist
TTITLE6=Must´ve Been The Devil
TTITLE7=Moon Blues
TTITLE8=Pretty Woman
TTITLE9=Oh Why
EXTD=
EXTT0=
EXTT1=
EXTT2=
EXTT3=
EXTT4=
EXTT5=
EXTT6=
EXTT7=
EXTT8=
EXTT9=
PLAYORDER=
